<svg width="768" height="293" viewBox="0 0 768 293" fill="none" xmlns="http://www.w3.org/2000/svg">
<path d="M307.829 43.664H255.235V0H307.829V43.664ZM512.016 43.664H459.422V0H512.016V43.664ZM103.641 126.664H51.0469V83H103.641V126.664ZM102.094 126.664V39.3008H154.688V126.664H102.094ZM205.735 126.664H153.141V83H205.735V126.664ZM255.235 126.664V39.3008H307.829V126.664H255.235ZM358.875 83H306.282V39.3008H358.875V83ZM357.329 126.664V39.3008H409.922V126.664H357.329ZM460.969 83H408.375V39.3008H460.969V83ZM459.422 126.664V39.3008H512.016V126.664H459.422ZM614.11 126.664H561.516V83H614.11V126.664ZM612.563 126.664V39.3008H665.157V126.664H612.563ZM716.204 126.664H663.61V83H716.204V126.664ZM52.5938 166H0V122.301H52.5938V166ZM103.641 166H51.0469V122.301H103.641V166ZM102.094 209.664V122.301H154.688V209.664H102.094ZM153.141 209.664V122.301H205.735V209.664H153.141ZM204.188 209.664V122.301H256.782V209.664H204.188ZM255.235 209.664V122.301H307.829V209.664H255.235ZM358.875 209.664H306.282V166H358.875V209.664ZM357.329 209.664V122.301H409.922V209.664H357.329ZM460.969 209.664H408.375V166H460.969V209.664ZM459.422 209.664V122.301H512.016V209.664H459.422ZM510.469 209.664V122.301H563.063V209.664H510.469ZM561.516 209.664V122.301H614.11V209.664H561.516ZM612.563 209.664V122.301H665.157V209.664H612.563ZM716.204 166H663.61V122.301H716.204V166ZM767.25 166H714.657V122.301H767.25V166ZM307.829 249H255.235V205.301H307.829V249ZM306.282 292.664V205.301H358.875V292.664H306.282ZM409.922 249H357.329V205.301H409.922V249ZM408.375 292.664V205.301H460.969V292.664H408.375ZM512.016 249H459.422V205.301H512.016V249Z" fill="Black"/>
</svg>
